<svg width="50" height="50" viewBox="0 0 50 50" fill="none" xmlns="http://www.w3.org/2000/svg">
<g clip-path="url(#clip0_18_275)">
<path d="M41.146 50H8.854C3.958 50 0 45.9405 0 40.919V9.08103C0 4.05949 3.958 0 8.854 0H41.146C46.042 0 50 4.05949 50 9.08103V40.919C50 45.9405 46.042 50 41.146 50Z" fill="#FF26BE"/>
<path d="M40.354 47.8626H9.64598C5.47998 47.8626 2.08398 44.3795 2.08398 40.1067V9.89333C2.08398 5.62051 5.47998 2.13744 9.64598 2.13744H40.334C44.522 2.13744 47.896 5.62051 47.896 9.89333V40.0862C47.916 44.3795 44.52 47.8626 40.354 47.8626Z" fill="#2E001F"/>
<path d="M19.7699 23.3969L25.6039 34.8923C25.7079 35.0626 25.6459 35.2349 25.4779 35.2349H21.8519C21.6219 35.2349 21.5179 35.1713 21.4139 34.9579C20.0799 32.1374 18.7259 29.3169 17.3299 26.2831H17.2879C16.0379 29.1467 14.6619 32.16 13.3299 34.9805C13.2259 35.1508 13.1219 35.2164 12.9539 35.2164H9.51995C9.31195 35.2164 9.28995 35.0462 9.39595 34.9169L15.1039 23.7621L9.58395 12.48C9.45795 12.3097 9.58395 12.1805 9.70795 12.1805H13.2919C13.4999 12.1805 13.5839 12.2236 13.6659 12.4164C14.9779 15.2369 16.3119 18.1436 17.5619 20.9846H17.6039C18.8119 18.1641 20.1459 15.2369 21.4379 12.4369C21.5419 12.2667 21.6039 12.16 21.8139 12.16H25.1679C25.3339 12.16 25.3979 12.2892 25.2939 12.4595L19.7699 23.3969ZM26.6259 26.88C26.6259 21.9015 29.8559 18.0123 34.9799 18.0123C35.4179 18.0123 35.6459 18.0123 36.0639 18.0554V12.3938C36.0639 12.2646 36.1679 12.1805 36.2719 12.1805H39.5639C39.7299 12.1805 39.7719 12.2441 39.7719 12.3508V31.9672C39.7719 32.5436 39.7719 33.2697 39.8759 34.0615C39.8759 34.1908 39.8339 34.2318 39.7099 34.2974C37.9599 35.1528 36.1259 35.5364 34.3759 35.5364C29.8539 35.5549 26.6239 32.6933 26.6259 26.88ZM36.0619 21.4113C35.7699 21.2821 35.3539 21.1979 34.8539 21.1979C32.2279 21.1979 30.3959 23.2697 30.3959 26.7118C30.3959 30.6441 32.2719 32.2256 34.6259 32.2256C35.1259 32.2256 35.6679 32.1621 36.0639 31.9897V21.4113H36.0619Z" fill="#FFD9F2"/>
</g>
<defs>
<clipPath id="clip0_18_275">
<rect width="50" height="50" fill="white"/>
</clipPath>
</defs>
</svg>
