<svg width="30" height="30" viewBox="0 0 30 30" fill="none" xmlns="http://www.w3.org/2000/svg">
<g clip-path="url(#clip0_20_38)">
<path d="M0.75 15C1.5348 34.0074 28.4721 33.9927 29.25 15C28.4703 -3.99719 1.5327 -4.00289 0.75 15Z" fill="#D43C89"/>
<path d="M18.7412 14.6109C23.0198 14.0748 27.2648 14.9328 27.686 15.0264C27.6659 11.9835 26.5763 9.18841 24.7913 6.99691C24.5171 7.36561 22.3646 10.1337 17.618 12.0774C18.0263 12.9015 18.398 13.7571 18.7412 14.6109ZM23.5139 5.58721C21.2477 3.56311 18.266 2.33641 14.9969 2.33641C13.9607 2.34301 12.9512 2.47051 11.9885 2.69851C12.3428 3.17431 14.6759 6.36481 16.7819 10.2387C21.3545 8.52301 23.2865 5.91571 23.5139 5.58721ZM14.4974 11.0181C12.3716 7.22461 10.0718 4.03411 9.73103 3.56491C6.14094 5.26741 3.44694 8.59171 2.61804 12.5865C3.19284 12.5931 8.48754 12.6132 14.4974 11.0181ZM15.9965 15.1014C16.1624 15.048 16.3283 14.9949 16.5008 14.9484C16.1822 14.2233 15.8306 13.4913 15.4655 12.7794C9.10133 14.6889 2.91624 14.6091 2.35884 14.6025C2.24544 17.9865 3.51144 21.1974 5.63064 23.5383C5.92254 23.0391 9.41993 17.2305 15.9965 15.1014ZM17.2079 17.0814C10.1894 19.5351 7.66433 24.4167 7.44413 24.8712C10.7396 27.5721 15.9779 28.314 19.9403 26.5137C19.7525 25.4166 19.0337 21.606 17.2856 17.0556C17.2598 17.0685 17.2274 17.0751 17.2079 17.0814ZM19.7507 16.4535C21.383 20.9586 22.0463 24.6225 22.1828 25.3854C24.9791 23.4816 26.9753 20.4762 27.5345 16.9881C27.1052 16.851 23.6654 15.8274 19.7507 16.4535Z" fill="#B2005F"/>
</g>
<defs>
<clipPath id="clip0_20_38">
<rect width="30" height="30" fill="white"/>
</clipPath>
</defs>
</svg>
