<svg width="30" height="30" viewBox="0 0 30 30" fill="none" xmlns="http://www.w3.org/2000/svg">
<g clip-path="url(#clip0_20_42)">
<path d="M28.3333 0H1.66667C0.746192 0 0 0.746192 0 1.66667V28.3333C0 29.2538 0.746192 30 1.66667 30H28.3333C29.2538 30 30 29.2538 30 28.3333V1.66667C30 0.746192 29.2538 0 28.3333 0Z" fill="#117EB8"/>
<path fill-rule="evenodd" clip-rule="evenodd" d="M5.47468 11.6033H9.48427V24.5042H5.47468V11.6033ZM7.4801 5.19042C8.76218 5.19042 9.80385 6.23209 9.80385 7.51417C9.80385 8.7975 8.76218 9.83959 7.4801 9.83959C7.17113 9.84544 6.86409 9.78963 6.57693 9.67544C6.28978 9.56125 6.02827 9.39095 5.8077 9.17452C5.58712 8.95808 5.41191 8.69984 5.2923 8.4149C5.17269 8.12996 5.11108 7.82403 5.11108 7.515C5.11108 7.20597 5.17269 6.90005 5.2923 6.61511C5.41191 6.33017 5.58712 6.07193 5.8077 5.85549C6.02827 5.63905 6.28978 5.46876 6.57693 5.35457C6.86409 5.24037 7.17113 5.18457 7.4801 5.19042ZM11.9993 11.6029H15.8451V13.3658H15.8984C16.4338 12.3517 17.7418 11.2825 19.6922 11.2825C23.7522 11.2825 24.5022 13.9546 24.5022 17.4283V24.5042H20.4951V18.2304C20.4951 16.7346 20.4676 14.81 18.4118 14.81C16.3255 14.81 16.0051 16.4396 16.0051 18.1225V24.5042H11.9988V11.6033L11.9993 11.6029Z" fill="white"/>
</g>
<defs>
<clipPath id="clip0_20_42">
<rect width="30" height="30" fill="white"/>
</clipPath>
</defs>
</svg>
