<svg width="50" height="50" viewBox="0 0 50 50" fill="none" xmlns="http://www.w3.org/2000/svg">
<path d="M25 4.16666C20.8795 4.16663 16.8515 5.38848 13.4254 7.6777C9.99928 9.96693 7.32896 13.2207 5.75211 17.0276C4.17527 20.8344 3.76271 25.0234 4.56661 29.0647C5.37051 33.1061 7.35476 36.8183 10.2684 39.7319C13.1821 42.6455 16.8944 44.6297 20.9357 45.4335C24.9771 46.2373 29.166 45.8246 32.9729 44.2477C36.7797 42.6707 40.0334 40.0003 42.3226 36.5742C44.6117 33.148 45.8335 29.12 45.8333 24.9995C45.827 19.4761 43.6301 14.1808 39.7244 10.2752C35.8187 6.36967 30.5233 4.17282 25 4.16666ZM6.26931 24.9995C6.26724 22.3727 6.81988 19.7751 7.89106 17.3766L16.8261 41.8569C13.6612 40.3217 10.9924 37.9264 9.12543 34.9451C7.25843 31.9639 6.26862 28.5171 6.26931 24.9995ZM25 43.7317C23.2087 43.7317 21.4266 43.4747 19.7083 42.9685L25.3289 26.6379L31.0858 42.4115C31.1233 42.5012 31.1682 42.5875 31.2201 42.6697C29.2219 43.3737 27.1185 43.7328 25 43.7317ZM27.5812 16.2174C28.7089 16.1582 29.7251 16.0395 29.7251 16.0395C29.9276 16.0208 30.1146 15.9232 30.2457 15.7677C30.3769 15.6123 30.4415 15.4115 30.4258 15.2088C30.4101 15.006 30.3153 14.8176 30.1618 14.6842C30.0083 14.5507 29.8085 14.4831 29.6056 14.4958C29.6056 14.4958 26.5716 14.7339 24.6129 14.7339C22.7727 14.7339 19.68 14.4958 19.68 14.4958C19.4773 14.4837 19.278 14.5517 19.125 14.6852C18.972 14.8186 18.8775 15.0069 18.8619 15.2093C18.8464 15.4117 18.9109 15.6122 19.0417 15.7675C19.1725 15.9228 19.3591 16.0205 19.5612 16.0395C19.5612 16.0395 20.5164 16.1582 21.5258 16.2174L24.444 24.2132L20.344 36.5067L13.5236 16.2174C14.6521 16.1582 15.6672 16.0396 15.6672 16.0396C15.8695 16.0207 16.0563 15.9229 16.1873 15.7675C16.3182 15.6121 16.3828 15.4114 16.3671 15.2088C16.3513 15.0061 16.2566 14.8178 16.1032 14.6844C15.9499 14.5511 15.7503 14.4833 15.5474 14.4958C15.5474 14.4958 12.5142 14.734 10.5555 14.734C10.204 14.734 9.7895 14.7254 9.35006 14.7112C10.8393 12.4448 12.8029 10.5289 15.1054 9.09604C17.4078 7.66314 19.9939 6.74744 22.685 6.41226C25.3761 6.07708 28.1078 6.33042 30.6914 7.15475C33.2749 7.97909 35.6486 9.35475 37.6483 11.1866C37.5676 11.1816 37.4888 11.1716 37.4059 11.1716C36.5486 11.1971 35.7363 11.5613 35.1468 12.1843C34.5573 12.8073 34.2386 13.6384 34.2604 14.4958C34.4568 16.1019 35.0936 17.6223 36.1003 18.889C37.0847 20.4341 37.6194 22.2228 37.6445 24.0547C37.4499 26.129 36.9704 28.1666 36.2194 30.1099L34.3506 36.3523L27.5812 16.2174ZM34.4166 41.1896L40.1377 24.6485C41.0457 22.5266 41.5296 20.2474 41.5621 17.9396C41.5633 17.2954 41.5212 16.6519 41.4362 16.0134C43.777 20.2972 44.3532 25.3256 43.0421 30.0278C41.731 34.7301 38.6362 38.7349 34.4166 41.1896Z" fill="black"/>
</svg>
